HIERARCHY
ROOT Hips
{
	OFFSET 0.00000 0.00000 0.00000
	CHANNELS 6 Xposition Yposition Zposition Zrotation Yrotation Xrotation 
	JOINT LHipJoint
	{
		OFFSET 0 0 0
		CHANNELS 3 Zrotation Yrotation Xrotation
		JOINT LeftUpLeg
		{
			OFFSET 1.41496 -1.84582 0.78394
			CHANNELS 3 Zrotation Yrotation Xrotation
			JOINT LeftLeg
			{
				OFFSET 2.58040 -7.08960 0.00000
				CHANNELS 3 Zrotation Yrotation Xrotation
				JOINT LeftFoot
				{
					OFFSET 2.64719 -7.27309 0.00000
					CHANNELS 3 Zrotation Yrotation Xrotation
					JOINT LeftToeBase
					{
						OFFSET 0.20718 -0.56921 2.20259
						CHANNELS 3 Zrotation Yrotation Xrotation
						End Site
						{
							OFFSET 0.00000 -0.00000 1.14243
						}
					}
				}
			}
		}
	}
	JOINT RHipJoint
	{
		OFFSET 0 0 0
		CHANNELS 3 Zrotation Yrotation Xrotation
		JOINT RightUpLeg
		{
			OFFSET -1.40551 -1.84582 0.78394
			CHANNELS 3 Zrotation Yrotation Xrotation
			JOINT RightLeg
			{
				OFFSET -2.56572 -7.04926 0.00000
				CHANNELS 3 Zrotation Yrotation Xrotation
				JOINT RightFoot
				{
					OFFSET -2.57974 -7.08778 0.00000
					CHANNELS 3 Zrotation Yrotation Xrotation
					JOINT RightToeBase
					{
						OFFSET -0.26704 -0.73369 2.20815
						CHANNELS 3 Zrotation Yrotation Xrotation
						End Site
						{
							OFFSET -0.00000 -0.00000 1.16246
						}
					}
				}
			}
		}
	}
	JOINT LowerBack
	{
		OFFSET 0 0 0
		CHANNELS 3 Zrotation Yrotation Xrotation
		JOINT Spine
		{
			OFFSET -0.04690 2.05196 -0.07017
			CHANNELS 3 Zrotation Yrotation Xrotation
			JOINT Spine1
			{
				OFFSET 0.04085 2.05260 0.00800
				CHANNELS 3 Zrotation Yrotation Xrotation
				JOINT Neck
				{
					OFFSET 0 0 0
					CHANNELS 3 Zrotation Yrotation Xrotation
					JOINT Neck1
					{
						OFFSET -0.03582 1.80995 0.19301
						CHANNELS 3 Zrotation Yrotation Xrotation
						JOINT Head
						{
							OFFSET 0.00952 1.80195 -0.36389
							CHANNELS 3 Zrotation Yrotation Xrotation
							End Site
							{
								OFFSET 0.00392 1.85062 -0.14494
							}
						}
					}
				}
				JOINT LeftShoulder
				{
					OFFSET 0 0 0
					CHANNELS 3 Zrotation Yrotation Xrotation
					JOINT LeftArm
					{
						OFFSET 3.55224 1.39726 -0.13667
						CHANNELS 3 Zrotation Yrotation Xrotation
						JOINT LeftForeArm
						{
							OFFSET 5.14507 -0.00000 -0.00000
							CHANNELS 3 Zrotation Yrotation Xrotation
							JOINT LeftHand
							{
								OFFSET 3.50646 -0.00000 0.00000
								CHANNELS 3 Zrotation Yrotation Xrotation
								JOINT LeftFingerBase
								{
									OFFSET 0 0 0
									CHANNELS 3 Zrotation Yrotation Xrotation
									JOINT LeftHandIndex1
									{
										OFFSET 0.62997 -0.00000 0.00000
										CHANNELS 3 Zrotation Yrotation Xrotation
										End Site
										{
											OFFSET 0.50790 -0.00000 0.00000
										}
									}
								}
								JOINT LThumb
								{
									OFFSET 0 0 0
									CHANNELS 3 Zrotation Yrotation Xrotation
									End Site
									{
										OFFSET 0.51565 -0.00000 0.51565
									}
								}
							}
						}
					}
				}
				JOINT RightShoulder
				{
					OFFSET 0 0 0
					CHANNELS 3 Zrotation Yrotation Xrotation
					JOINT RightArm
					{
						OFFSET -3.06467 1.61290 -0.28813
						CHANNELS 3 Zrotation Yrotation Xrotation
						JOINT RightForeArm
						{
							OFFSET -5.23200 -0.00000 -0.00000
							CHANNELS 3 Zrotation Yrotation Xrotation
							JOINT RightHand
							{
								OFFSET -3.65641 -0.00000 0.00000
								CHANNELS 3 Zrotation Yrotation Xrotation
								JOINT RightFingerBase
								{
									OFFSET 0 0 0
									CHANNELS 3 Zrotation Yrotation Xrotation
									JOINT RightHandIndex1
									{
										OFFSET -0.65681 -0.00000 0.00000
										CHANNELS 3 Zrotation Yrotation Xrotation
										End Site
										{
											OFFSET -0.52953 -0.00000 0.00000
										}
									}
								}
								JOINT RThumb
								{
									OFFSET 0 0 0
									CHANNELS 3 Zrotation Yrotation Xrotation
									End Site
									{
										OFFSET -0.53762 -0.00000 0.53762
									}
								}
							}
						}
					}
				}
			}
		}
	}
}
MOTION
Frames: 11
Frame Time: 0.0540541
0.00 0.00 0.00 10.8948 16.0711 9.0909 0.0000 0.0000 0.0000 -6.4455 -14.5587 -27.5151 8.8570 16.7148 55.5943 2.7270 -19.0585 -30.7499 2.4356 -9.7198 -28.0742 0.0000 0.0000 0.0000 15.4977 -8.1355 -35.1111 -25.0741 -19.3712 104.9866 -0.5542 -0.7591 -14.3578 -4.3022 12.5520 -37.7138 -12.3832 -0.2441 18.7079 -4.9954 -3.0934 3.0760 2.3025 -1.2307 -6.7615 -7.2925 -5.3894 -17.5759 8.6910 -6.6524 8.1006 3.2617 -2.8265 5.8471 0.0000 -0.0000 0.0000 -74.6386 -7.6634 29.4360 128.8569 -53.4462 -92.9103 -0.0000 0.0000 -8.4072 20.1739 -9.6910 -3.5391 -7.1250 0.0000 -0.0000 -4.8482 19.6876 2.9420 0.0000 -0.0000 0.0000 84.8285 -30.7211 25.5474 -61.4832 56.6924 -35.5780 0.0000 -0.0000 -13.9361 -29.0189 5.3456 -2.9585 7.1250 -0.0000 -0.0000 -1.7293 -23.8726 -0.8819
0.00 0.00 0.00 14.3227 10.4193 14.3222 0.0000 0.0000 0.0000 -16.0885 -10.4943 -11.4781 6.4233 14.8264 46.6577 4.3544 -9.7374 -38.0411 3.0893 -10.8383 -31.7363 0.0000 0.0000 0.0000 10.5167 4.5664 -64.1446 -21.5106 -19.9452 94.4206 -1.1436 -1.9547 -20.9942 -5.0848 13.4787 -41.1878 -13.9339 -1.3845 19.2662 -3.7691 -5.0357 2.0665 4.9680 -2.0158 -7.6880 -5.1247 -2.9229 -20.5653 4.7911 -3.1159 6.1044 2.0241 -1.2919 5.2784 -0.0000 0.0000 0.0000 -84.2445 -15.4766 34.4154 143.7186 -45.7057 -104.2764 -0.0000 0.0000 -13.3691 20.1684 -9.2454 -3.3772 -7.1250 0.0000 -0.0000 -4.8472 20.1591 2.8900 -0.0000 0.0000 0.0000 85.4352 -34.2962 24.6258 -74.5784 59.0820 -46.6857 0.0000 -0.0000 -11.9449 -27.5303 8.8708 -4.5955 7.1250 -0.0000 -0.0000 -0.4423 -19.9980 -0.2644
0.00 0.00 0.00 15.1266 8.3153 16.3212 0.0000 0.0000 0.0000 -19.8741 -7.8720 -1.3402 4.4868 12.7814 38.5556 2.2004 -4.3508 -27.0476 4.1089 -12.3039 -36.8158 0.0000 0.0000 0.0000 4.7460 8.3891 -69.8462 -15.3228 -19.4672 76.2072 -0.8625 -3.8414 -19.3392 -5.2697 13.6813 -41.9754 -13.0294 -2.5433 18.6622 -2.8541 -6.2711 1.3954 5.7256 -2.5921 -7.8681 -4.2243 -1.6015 -21.1150 2.7411 -1.3246 5.9696 1.4102 -0.5462 5.2031 0.0000 -0.0000 0.0000 -84.6772 -12.2160 40.0014 147.1925 -43.1816 -106.7098 -0.0000 0.0000 -11.2025 19.4995 -10.0390 -3.5323 -7.1250 0.0000 -0.0000 -5.3325 19.3679 3.2764 0.0000 -0.0000 0.0000 85.9851 -35.0621 25.7698 -82.8209 59.8044 -53.7868 0.0000 -0.0000 -12.4580 -27.1854 9.8529 -5.0227 7.1250 -0.0000 -0.0000 -0.1351 -18.9318 -0.0840
0.00 0.00 0.00 16.0155 6.7558 16.9571 0.0000 0.0000 0.0000 -22.4365 -6.6649 3.4047 4.1282 12.3291 36.9064 0.2281 -1.3042 -8.6573 3.2037 -11.0178 -32.3399 0.0000 0.0000 0.0000 0.9602 9.8627 -68.9091 -11.2423 -18.0516 63.5659 -0.2285 -6.7764 -13.9560 -4.7018 13.0399 -39.5180 -12.1795 -2.8645 18.1728 -2.6125 -6.4378 1.2978 5.5236 -2.7092 -7.7368 -4.0697 -1.2288 -21.4505 1.4159 -0.7013 5.6724 1.0254 -0.3371 5.1298 -0.0000 -0.0000 0.0000 -83.6722 -7.7975 44.9678 143.4790 -45.8681 -104.1047 -0.0000 0.0000 -8.7276 19.2231 -10.5639 -3.6577 -7.1250 0.0000 -0.0000 -5.5340 18.8363 3.4671 -0.0000 -0.0000 0.0000 87.6641 -33.1947 25.5147 -81.8487 59.7474 -52.9467 0.0000 -0.0000 -13.2333 -27.7985 10.0793 -5.2716 7.1250 -0.0000 -0.0000 -0.5536 -18.6180 -0.3479
0.00 0.00 0.00 16.7622 4.3090 17.1216 0.0000 0.0000 0.0000 -26.0983 -8.3007 3.0062 5.7680 14.1997 44.0434 0.1475 -1.5631 8.0054 0.4085 -4.1028 -11.3661 0.0000 0.0000 0.0000 0.2234 10.8365 -65.1809 -10.0421 -17.4335 59.6291 0.0481 -8.8294 -11.6422 -2.6709 10.1423 -29.4388 -10.9697 -2.4598 17.5930 -2.4187 -5.5955 1.1163 4.8607 -2.3375 -7.8553 -4.1898 -1.0988 -21.6874 -0.5387 -0.2658 5.3670 0.4640 -0.2748 5.0546 0.0000 0.0000 0.0000 -83.2554 -0.9820 48.7637 128.3187 -53.6515 -92.4773 -0.0000 0.0000 -4.4571 21.3360 -10.5239 -4.0807 -7.1250 0.0000 -0.0000 -4.0386 18.7164 2.5354 0.0000 0.0000 0.0000 87.9667 -27.6229 26.3733 -72.4648 58.8057 -44.8750 0.0000 -0.0000 -16.0171 -26.8668 9.2026 -4.6319 7.1250 -0.0000 -0.0000 0.0517 -19.6861 0.0313
0.00 0.00 0.00 15.2716 3.3837 16.6427 0.0000 0.0000 0.0000 -25.9665 -9.7764 -0.5289 8.1788 16.2492 53.2043 -0.0034 -5.0380 7.0776 0.2546 -3.2467 -8.9665 0.0000 0.0000 0.0000 3.3348 11.2607 -61.2375 -10.9492 -17.9101 62.6165 -0.1403 -9.7294 -15.9932 -1.5183 7.7810 -22.0508 -8.8199 -2.0838 17.8729 -1.6229 -4.6456 1.1045 4.3487 -1.9247 -8.2639 -4.3206 -1.0887 -21.5847 -1.6378 -0.1174 4.7295 0.1506 -0.2765 4.8356 0.0000 0.0000 0.0000 -84.1206 2.4607 49.3348 113.0062 -57.9025 -79.7836 -0.0000 0.0000 -4.4112 22.4460 -10.6656 -4.3722 -7.1250 0.0000 -0.0000 -3.2583 18.4730 2.0613 0.0000 0.0000 0.0000 86.9310 -23.1719 27.7235 -66.4982 57.8065 -39.7967 0.0000 -0.0000 -17.0352 -26.7016 8.7595 -4.3802 7.1250 -0.0000 -0.0000 0.1448 -20.1938 0.0859
0.00 0.00 0.00 12.2428 2.7272 15.8451 0.0000 0.0000 0.0000 -23.2446 -10.1030 -6.4531 11.2828 18.0707 63.6965 -0.1930 -7.8324 3.9788 0.2825 -3.4181 -9.4451 0.0000 0.0000 0.0000 8.0869 12.0967 -55.3411 -11.7679 -18.2908 65.2512 -0.5133 -11.1378 -21.7937 -1.4752 7.6746 -21.7300 -5.6388 -1.6529 18.5607 -0.4569 -3.3771 1.2527 3.5658 -1.3981 -8.7507 -4.1848 -1.0721 -21.3110 -2.5773 -0.0812 3.8005 -0.1617 -0.3020 4.5024 0.0000 -0.0000 0.0000 -85.4829 5.1605 48.6112 94.3019 -59.9300 -63.7247 -0.0000 0.0000 -6.7495 24.0731 -11.2100 -4.9638 -7.1250 0.0000 -0.0000 -2.1358 17.7379 1.3846 0.0000 -0.0000 0.0000 85.8348 -18.2723 29.3281 -62.5335 56.9481 -36.4570 0.0000 -0.0000 -16.5643 -26.6667 8.2016 -4.0980 7.1250 -0.0000 -0.0000 0.1405 -20.8176 0.0814
0.00 0.00 0.00 7.3250 2.0192 15.4173 0.0000 0.0000 0.0000 -16.8255 -8.9566 -24.5083 17.2763 19.8212 82.0137 -0.0373 -7.5755 -4.4393 0.3123 -3.5927 -9.9334 0.0000 0.0000 0.0000 16.3942 10.6949 -42.4903 -11.9541 -18.3712 65.8431 -1.6022 -13.0352 -31.6916 -3.0819 10.8264 -31.6966 -0.9781 -1.0032 18.9676 1.1862 -1.4041 1.1498 2.2213 -0.5952 -9.3439 -3.1917 -0.7848 -21.2413 -3.8281 0.1426 3.4054 -0.6899 -0.2512 4.3735 0.0000 -0.0000 0.0000 -86.7952 12.0914 44.5746 69.4913 -58.3495 -42.3373 -0.0000 0.0000 -5.0864 26.5316 -12.4932 -6.1643 -7.1250 0.0000 -0.0000 -0.5038 16.0706 0.3446 0.0000 -0.0000 0.0000 84.3369 -9.7509 33.4886 -69.1349 58.2894 -42.0340 0.0000 -0.0000 -16.6939 -25.8589 6.7426 -3.2570 7.1250 -0.0000 -0.0000 0.6639 -22.4951 0.3594
0.00 0.00 0.00 5.9463 2.6614 16.0162 0.0000 0.0000 0.0000 -14.6470 -8.9118 -35.3481 19.0537 19.9785 87.2321 0.1946 -6.9336 -8.6143 0.3370 -3.7306 -10.3201 0.0000 0.0000 0.0000 19.2927 7.8485 -35.9454 -11.1949 -18.0292 63.4129 -2.1390 -13.0736 -34.8393 -3.9022 12.0291 -35.8351 0.3860 -0.8853 17.9923 1.6299 -0.9245 0.7296 1.7858 -0.4149 -9.2991 -3.0330 -0.8576 -21.5489 -3.7374 0.0408 4.0750 -0.7008 -0.3108 4.6300 0.0000 0.0000 0.0000 -85.3997 18.0419 44.4769 72.8897 -58.8644 -45.2386 -0.0000 0.0000 -4.2469 25.7687 -12.6278 -6.0245 -7.1250 0.0000 -0.0000 -1.0398 16.0110 0.7128 0.0000 0.0000 0.0000 84.3714 -7.8680 35.4445 -85.6302 59.9277 -56.2165 0.0000 -0.0000 -17.7535 -25.3734 7.5071 -3.5457 7.1250 -0.0000 -0.0000 1.0467 -21.6824 0.5860
0.00 0.00 0.00 4.4597 3.9578 16.7762 0.0000 0.0000 0.0000 -12.7728 -9.4535 -45.9792 19.5266 19.9946 88.6157 0.3860 -7.8391 -11.5689 0.4030 -4.0755 -11.2893 0.0000 0.0000 0.0000 22.2460 4.7943 -28.8468 -9.8780 -17.3407 59.0799 -2.2758 -12.8158 -35.3957 -4.7605 13.1089 -39.7774 1.8862 -0.7121 16.5080 2.0534 -0.3836 0.1263 1.2394 -0.2141 -9.1511 -3.2502 -1.3505 -21.7411 -3.3421 -0.5575 4.7607 -0.6058 -0.5967 4.8726 -0.0000 -0.0000 0.0000 -82.7356 24.8152 46.7052 84.3508 -59.8791 -55.1096 -0.0000 0.0000 -8.1287 24.5157 -12.6878 -5.7201 -7.1250 0.0000 -0.0000 -1.9087 16.0866 1.3058 -0.0000 -0.0000 0.0000 84.4530 -7.5039 37.2188 -108.0163 58.7373 -75.5364 0.0000 -0.0000 -17.6520 -24.5147 8.9311 -4.0497 7.1250 -0.0000 -0.0000 1.7218 -20.1823 1.0225
0.00 0.00 0.00 3.1521 5.4718 17.2092 0.0000 0.0000 0.0000 -11.8820 -10.4320 -54.4051 18.3691 19.9361 85.2268 0.4597 -9.8665 -13.0012 0.4945 -4.5088 -12.5126 0.0000 0.0000 0.0000 24.8553 1.7679 -20.7185 -8.0666 -16.1680 52.8021 -1.8261 -11.6745 -31.9965 -5.6307 14.0607 -43.4810 3.0305 -0.3889 14.9015 2.3988 0.2388 -0.4793 0.8082 0.0393 -8.9067 -3.5591 -2.1023 -21.7838 -2.9711 -1.4849 5.4147 -0.5391 -1.0433 5.0881 0.0000 0.0000 0.0000 -79.8527 31.4101 49.3387 97.0206 -59.8129 -66.0762 -0.0000 0.0000 -11.4420 23.3269 -12.5150 -5.3385 -7.1250 0.0000 -0.0000 -2.7214 16.4004 1.8444 0.0000 0.0000 0.0000 84.0070 -7.7854 39.0240 -127.0404 54.1216 -91.4447 0.0000 -0.0000 -15.7480 -23.9090 10.3794 -4.5666 7.1250 -0.0000 -0.0000 2.2132 -18.6550 1.3900
